<svg width="30" height="24" viewBox="0 0 30 24" fill="none" xmlns="http://www.w3.org/2000/svg">
<g clip-path="url(#clip0_1212_177)">
<path d="M28.5 0H1.5C0.671573 0 0 0.671573 0 1.5C0 2.32843 0.671573 3 1.5 3H28.5C29.3284 3 30 2.32843 30 1.5C30 0.671573 29.3284 0 28.5 0Z" fill="white"/>
<path d="M28.5 10.4509H1.5C0.671573 10.4509 0 11.1225 0 11.9509C0 12.7794 0.671573 13.4509 1.5 13.4509H28.5C29.3284 13.4509 30 12.7794 30 11.9509C30 11.1225 29.3284 10.4509 28.5 10.4509Z" fill="white"/>
<path d="M20.5 21H1.5C0.671573 21 0 21.6716 0 22.5C0 23.3284 0.671573 24 1.5 24H20.5C21.3284 24 22 23.3284 22 22.5C22 21.6716 21.3284 21 20.5 21Z" fill="white"/>
</g>
<defs>
<clipPath id="clip0_1212_177">
<rect width="30" height="24" fill="white"/>
</clipPath>
</defs>
</svg>
