<svg width="23" height="23" viewBox="0 0 18 18" fill="none" xmlns="http://www.w3.org/2000/svg">
<path d="M2.25 4.5H3.75H15.75" stroke="#424242" stroke-width="1.1" stroke-linecap="round" stroke-linejoin="round"/>
<path d="M6 4.49988V2.99988C6 2.60205 6.15804 2.22052 6.43934 1.93922C6.72064 1.65791 7.10218 1.49988 7.5 1.49988H10.5C10.8978 1.49988 11.2794 1.65791 11.5607 1.93922C11.842 2.22052 12 2.60205 12 2.99988V4.49988M14.25 4.49988V14.9999C14.25 15.3977 14.092 15.7792 13.8107 16.0605C13.5294 16.3418 13.1478 16.4999 12.75 16.4999H5.25C4.85218 16.4999 4.47064 16.3418 4.18934 16.0605C3.90804 15.7792 3.75 15.3977 3.75 14.9999V4.49988H14.25Z" stroke="#424242" stroke-width="1.1" stroke-linecap="round" stroke-linejoin="round"/>
<path d="M7.5 8.24988V12.7499" stroke="#424242" stroke-width="1.1" stroke-linecap="round" stroke-linejoin="round"/>
<path d="M10.5 8.24988V12.7499" stroke="#424242" stroke-width="1.1" stroke-linecap="round" stroke-linejoin="round"/>
</svg>
